<svg xmlns="http://www.w3.org/2000/svg" width="48" height="33" viewBox="0 0 48 33">
  <metadata><?xpacket begin="﻿" id="W5M0MpCehiHzreSzNTczkc9d"?>
<x:xmpmeta xmlns:x="adobe:ns:meta/" x:xmptk="Adobe XMP Core 5.6-c138 79.159824, 2016/09/14-01:09:01        ">
   <rdf:RDF xmlns:rdf="http://www.w3.org/1999/02/22-rdf-syntax-ns#">
      <rdf:Description rdf:about=""/>
   </rdf:RDF>
</x:xmpmeta>
                                                                                                    
                                                                                                    
                                                                                                    
                                                                                                    
                                                                                                    
                                                                                                    
                                                                                                    
                                                                                                    
                                                                                                    
                                                                                                    
                                                                                                    
                                                                                                    
                                                                                                    
                                                                                                    
                                                                                                    
                                                                                                    
                                                                                                    
                                                                                                    
                                                                                                    
                                                                                                    
                           
<?xpacket end="w"?></metadata>
<defs>
    <style>
      .cls-1 {
        fill: #959595;
        fill-rule: evenodd;
      }
    </style>
  </defs>
  <path id="椭圆_11" data-name="椭圆 11" class="cls-1" d="M127.12,1076.26a0.138,0.138,0,0,1-.027.04c0.814,2.63,1.706,5.51,1.837,5.93a0.592,0.592,0,0,1-.791.75c-0.35-.12-3.951-1.32-6.854-2.3a31.424,31.424,0,0,1-4.508,1.52,16.8,16.8,0,0,1-20.543-11.56,16.366,16.366,0,0,1,11.887-20.06,21.161,21.161,0,0,1,14.244,1.62c3.721,2.09,5.862,5.57,7.058,9.94A17.7,17.7,0,0,1,127.12,1076.26Zm-32.962-5.3a18.066,18.066,0,0,0,6.8,9.84,11.96,11.96,0,0,1-9.927,1.72,18.821,18.821,0,0,1-3.091-1.12c-1.872.63-4.276,1.43-4.5,1.5a0.373,0.373,0,0,1-.5-0.47c0.086-.27.684-2.19,1.213-3.89-2.244-2.88-2.635-6.8-1.6-10.66,1.076-4.02,4.4-10.01,12.532-8.87A17.82,17.82,0,0,0,94.158,1070.96Zm19.787,1.21a16.838,16.838,0,0,0,6.173-3.08,6.692,6.692,0,0,1-4.994,7.39,6.877,6.877,0,0,1-8.1-3.96A16.952,16.952,0,0,0,113.945,1072.17Z" transform="translate(-82 -1050)"/>
</svg>
