<svg xmlns="http://www.w3.org/2000/svg" width="38" height="42" viewBox="0 0 38 42">
  <metadata><?xpacket begin="﻿" id="W5M0MpCehiHzreSzNTczkc9d"?>
<x:xmpmeta xmlns:x="adobe:ns:meta/" x:xmptk="Adobe XMP Core 5.6-c138 79.159824, 2016/09/14-01:09:01        ">
   <rdf:RDF xmlns:rdf="http://www.w3.org/1999/02/22-rdf-syntax-ns#">
      <rdf:Description rdf:about=""/>
   </rdf:RDF>
</x:xmpmeta>
                                                                                                    
                                                                                                    
                                                                                                    
                                                                                                    
                                                                                                    
                                                                                                    
                                                                                                    
                                                                                                    
                                                                                                    
                                                                                                    
                                                                                                    
                                                                                                    
                                                                                                    
                                                                                                    
                                                                                                    
                                                                                                    
                                                                                                    
                                                                                                    
                                                                                                    
                                                                                                    
                           
<?xpacket end="w"?></metadata>
<defs>
    <style>
      .cls-1 {
        fill: #959595;
        fill-rule: evenodd;
      }
    </style>
  </defs>
  <path id="dd" class="cls-1" d="M93,741h26a6,6,0,0,1,6,6v30a6,6,0,0,1-6,6H93a6,6,0,0,1-6-6V747A6,6,0,0,1,93,741Zm20.24,35.28H98.76a3.36,3.36,0,0,1-3.36-3.36v-4.56A3.36,3.36,0,0,1,98.76,765h14.48a3.36,3.36,0,0,1,3.36,3.36v4.56A3.36,3.36,0,0,1,113.24,776.28ZM97.5,755.44h10.017a2.1,2.1,0,1,1,0,4.2H97.5A2.1,2.1,0,1,1,97.5,755.44Zm17-3.52h-17a2.1,2.1,0,1,1,0-4.2h17A2.1,2.1,0,1,1,114.5,751.92Z" transform="translate(-87 -741)"/>
</svg>
