<svg xmlns="http://www.w3.org/2000/svg" width="38" height="42" viewBox="0 0 38 42">
  <metadata><?xpacket begin="﻿" id="W5M0MpCehiHzreSzNTczkc9d"?>
<x:xmpmeta xmlns:x="adobe:ns:meta/" x:xmptk="Adobe XMP Core 5.6-c138 79.159824, 2016/09/14-01:09:01        ">
   <rdf:RDF xmlns:rdf="http://www.w3.org/1999/02/22-rdf-syntax-ns#">
      <rdf:Description rdf:about=""/>
   </rdf:RDF>
</x:xmpmeta>
                                                                                                    
                                                                                                    
                                                                                                    
                                                                                                    
                                                                                                    
                                                                                                    
                                                                                                    
                                                                                                    
                                                                                                    
                                                                                                    
                                                                                                    
                                                                                                    
                                                                                                    
                                                                                                    
                                                                                                    
                                                                                                    
                                                                                                    
                                                                                                    
                                                                                                    
                                                                                                    
                           
<?xpacket end="w"?></metadata>
<defs>
    <style>
      .cls-1 {
        fill: #959595;
        fill-rule: evenodd;
      }
    </style>
  </defs>
  <path id="圆角矩形_63" data-name="圆角矩形 63" class="cls-1" d="M462.939,935h-25.47A10.4,10.4,0,0,1,427,924.692V903.307A10.4,10.4,0,0,1,437.469,893h25.47a2.03,2.03,0,0,1,2.046,2.014v37.972A2.03,2.03,0,0,1,462.939,935ZM446,919a3,3,0,1,1-3,3A3,3,0,0,1,446,919Zm0-18a3,3,0,0,1,3,3v8a3,3,0,0,1-6,0v-8A3,3,0,0,1,446,901Z" transform="translate(-427 -893)"/>
</svg>
