<svg xmlns="http://www.w3.org/2000/svg" width="42" height="42" viewBox="0 0 42 42">
  <metadata><?xpacket begin="﻿" id="W5M0MpCehiHzreSzNTczkc9d"?>
<x:xmpmeta xmlns:x="adobe:ns:meta/" x:xmptk="Adobe XMP Core 5.6-c138 79.159824, 2016/09/14-01:09:01        ">
   <rdf:RDF xmlns:rdf="http://www.w3.org/1999/02/22-rdf-syntax-ns#">
      <rdf:Description rdf:about=""/>
   </rdf:RDF>
</x:xmpmeta>
                                                                                                    
                                                                                                    
                                                                                                    
                                                                                                    
                                                                                                    
                                                                                                    
                                                                                                    
                                                                                                    
                                                                                                    
                                                                                                    
                                                                                                    
                                                                                                    
                                                                                                    
                                                                                                    
                                                                                                    
                                                                                                    
                                                                                                    
                                                                                                    
                                                                                                    
                                                                                                    
                           
<?xpacket end="w"?></metadata>
<defs>
    <style>
      .cls-1 {
        fill: #959595;
        fill-rule: evenodd;
      }
    </style>
  </defs>
  <path id="setting" class="cls-1" d="M463.849,1061.58l-1.954-.3a16.75,16.75,0,0,0-1.32-3.19l1.172-1.59a3.152,3.152,0,0,0,0-4.45l-1.8-1.8a3.17,3.17,0,0,0-4.456,0l-1.587,1.17a16.838,16.838,0,0,0-3.193-1.31l-0.294-1.96a3.161,3.161,0,0,0-3.151-3.15h-2.54a3.161,3.161,0,0,0-3.151,3.15l-0.294,1.96a16.811,16.811,0,0,0-3.193,1.31l-1.587-1.17a3.17,3.17,0,0,0-4.456,0l-1.8,1.8a3.152,3.152,0,0,0,0,4.45l1.172,1.59a16.75,16.75,0,0,0-1.32,3.19l-1.954.3a3.161,3.161,0,0,0-3.151,3.15v2.54a3.161,3.161,0,0,0,3.151,3.15l1.954,0.29a16.575,16.575,0,0,0,1.32,3.2l-1.172,1.58a3.164,3.164,0,0,0,0,4.46l1.8,1.8a3.17,3.17,0,0,0,4.456,0l1.587-1.18a16.215,16.215,0,0,0,3.193,1.32l0.294,1.96a3.161,3.161,0,0,0,3.151,3.15h2.54a3.161,3.161,0,0,0,3.151-3.15l0.294-1.96a16.24,16.24,0,0,0,3.193-1.32l1.587,1.18a3.17,3.17,0,0,0,4.456,0l1.8-1.8a3.164,3.164,0,0,0,0-4.46l-1.172-1.58a16.575,16.575,0,0,0,1.32-3.2l1.954-.29a3.161,3.161,0,0,0,3.151-3.15v-2.54A3.161,3.161,0,0,0,463.849,1061.58ZM446,1075.63a9.63,9.63,0,1,1,9.634-9.63A9.632,9.632,0,0,1,446,1075.63Z" transform="translate(-425 -1045)"/>
</svg>
